<svg width="376" height="374" viewBox="0 0 376 374" fill="none" xmlns="http://www.w3.org/2000/svg">
<g opacity="0.25">
<path d="M354.525 187.048C354.525 278.4 279.973 352.461 188 352.461C96.0278 352.461 21.4751 278.4 21.4751 187.048C21.4751 95.6962 96.0278 21.6353 188 21.6353C279.973 21.6353 354.525 95.6962 354.525 187.048Z" stroke="#148820"/>
<path d="M336.04 187.047C336.04 268.258 269.764 334.098 188 334.098C106.237 334.098 39.9604 268.258 39.9604 187.047C39.9604 105.837 106.237 39.9966 188 39.9966C269.764 39.9966 336.04 105.837 336.04 187.047Z" stroke="#148820"/>
<ellipse cx="188" cy="187.047" rx="125.427" ry="124.592" fill="#148820"/>
<path d="M375.501 187.048C375.501 289.907 291.557 373.296 188 373.296C84.4436 373.296 0.5 289.907 0.5 187.048C0.5 84.1887 84.4436 0.799316 188 0.799316C291.557 0.799316 375.501 84.1887 375.501 187.048Z" stroke="#148820"/>
</g>
</svg>
