<svg width="29" height="30" viewBox="0 0 29 30" fill="none" xmlns="http://www.w3.org/2000/svg">
<path d="M14.5 0.47168C6.50473 0.47168 0 6.93309 0 14.8751C0 22.8166 6.50473 29.2786 14.5 29.2786C22.4947 29.2786 29 22.8166 29 14.8751C29 6.93309 22.4958 0.47168 14.5 0.47168ZM18.106 15.3822H15.747V23.7344H12.2513C12.2513 23.7344 12.2513 19.1707 12.2513 15.3822H10.5897V12.4303H12.2513V10.5209C12.2513 9.15342 12.9055 7.01664 15.7791 7.01664L18.3694 7.0265V9.89199C18.3694 9.89199 16.7954 9.89199 16.4893 9.89199C16.1833 9.89199 15.7481 10.044 15.7481 10.6961V12.4308H18.4115L18.106 15.3822Z" fill="#148820"/>
</svg>
