<svg width="8" height="11" viewBox="0 0 8 11" fill="none" xmlns="http://www.w3.org/2000/svg">
<path d="M4.00066 0C1.97889 0 0.333984 1.64491 0.333984 3.66667C0.333984 4.27361 0.485728 4.87538 0.774199 5.40914L3.80014 10.8818C3.84043 10.9548 3.91719 11 4.00066 11C4.08412 11 4.16089 10.9548 4.20117 10.8818L7.22823 5.40734C7.51559 4.87538 7.66733 4.27359 7.66733 3.66665C7.66733 1.64491 6.02242 0 4.00066 0ZM4.00066 5.5C2.98978 5.5 2.16733 4.67756 2.16733 3.66667C2.16733 2.65579 2.98978 1.83335 4.00066 1.83335C5.01154 1.83335 5.83398 2.65579 5.83398 3.66667C5.83398 4.67756 5.01154 5.5 4.00066 5.5Z" fill="#949494"/>
</svg>
