<svg width="30" height="30" viewBox="0 0 30 30" fill="none" xmlns="http://www.w3.org/2000/svg">
<path opacity="0.4" d="M15 29.8002C23.2843 29.8002 30 23.1292 30 14.9001C30 6.671 23.2843 0 15 0C6.71573 0 0 6.671 0 14.9001C0 23.1292 6.71573 29.8002 15 29.8002Z" fill="#191919"/>
<path d="M19.9963 23.9695H9.92692C9.30903 23.9695 8.71645 23.7257 8.27954 23.2917C7.84262 22.8577 7.59717 22.2691 7.59717 21.6553V20.0945C7.59789 18.6419 8.1793 17.2491 9.21359 16.2222C10.2479 15.1953 11.6504 14.6184 13.1127 14.6184H16.8105C18.2732 14.6184 19.676 15.1955 20.7103 16.2229C21.7447 17.2502 22.3259 18.6436 22.3261 20.0965V21.6573C22.3255 22.2707 22.0798 22.8588 21.643 23.2924C21.2061 23.726 20.6138 23.9695 19.9963 23.9695Z" fill="white"/>
<path d="M14.9619 13.5998C17.1287 13.5998 18.8852 11.855 18.8852 9.70262C18.8852 7.55025 17.1287 5.80542 14.9619 5.80542C12.7951 5.80542 11.0386 7.55025 11.0386 9.70262C11.0386 11.855 12.7951 13.5998 14.9619 13.5998Z" fill="white"/>
</svg>
